<svg xmlns="http://www.w3.org/2000/svg" width="69.869" height="69.869" viewBox="0 0 69.869 69.869">
  <path id="Path_72" data-name="Path 72" d="M36.935,2A34.935,34.935,0,1,0,71.869,36.935,34.947,34.947,0,0,0,36.935,2ZM19.712,58.873c1.5-3.144,10.655-6.218,17.223-6.218s15.755,3.074,17.223,6.218a27.687,27.687,0,0,1-34.445,0Zm39.441-5.066c-5-6.079-17.118-8.14-22.218-8.14s-17.223,2.061-22.218,8.14a27.948,27.948,0,1,1,44.437,0ZM36.935,15.974A12.227,12.227,0,1,0,49.162,28.2,12.2,12.2,0,0,0,36.935,15.974Zm0,17.467a5.24,5.24,0,1,1,5.24-5.24A5.233,5.233,0,0,1,36.935,33.441Z" transform="translate(-2 -2)" fill="#f3feff"/>
</svg>
