<svg xmlns="http://www.w3.org/2000/svg" width="16.008" height="18.465" viewBox="0 0 16.008 18.465">
  <path id="Path_224" data-name="Path 224" d="M16.34,15.052a2.533,2.533,0,0,0-1.743.714L8.256,11.918a3.156,3.156,0,0,0,.08-.649,3.156,3.156,0,0,0-.08-.649l6.27-3.81a2.6,2.6,0,0,0,1.814.751,2.723,2.723,0,0,0,2.668-2.781,2.67,2.67,0,1,0-5.336,0,3.156,3.156,0,0,0,.08.649L7.482,9.24a2.6,2.6,0,0,0-1.814-.751A2.723,2.723,0,0,0,3,11.27,2.723,2.723,0,0,0,5.668,14.05,2.6,2.6,0,0,0,7.482,13.3l6.332,3.856a2.72,2.72,0,0,0-.071.6,2.6,2.6,0,1,0,2.6-2.707Zm0-11.2a.928.928,0,1,1-.889.927A.911.911,0,0,1,16.34,3.854ZM5.668,12.2a.928.928,0,1,1,.889-.927A.911.911,0,0,1,5.668,12.2ZM16.34,18.7a.928.928,0,1,1,.889-.927A.911.911,0,0,1,16.34,18.7Z" transform="translate(-3 -2)" fill="#155883"/>
</svg>
