<svg xmlns="http://www.w3.org/2000/svg" width="30.243" height="30.243" viewBox="0 0 30.243 30.243">
  <path id="Path_173" data-name="Path 173" d="M19.122,7.591a3.969,3.969,0,1,1-3.969,3.969,3.969,3.969,0,0,1,3.969-3.969m0,17.012c5.614,0,11.53,2.76,11.53,3.969v2.079H7.591V28.573c0-1.21,5.916-3.969,11.53-3.969m0-20.6a7.561,7.561,0,1,0,7.561,7.561A7.559,7.559,0,0,0,19.122,4Zm0,17.012C14.075,21.012,4,23.545,4,28.573v5.671H34.243V28.573C34.243,23.545,24.168,21.012,19.122,21.012Z" transform="translate(-4 -4)" fill="#f3feff"/>
</svg>
