<svg id="Group_174" data-name="Group 174" xmlns="http://www.w3.org/2000/svg" xmlns:xlink="http://www.w3.org/1999/xlink" width="101.317" height="108.012" viewBox="0 0 101.317 108.012">
  <defs>
    <clipPath id="clip-path">
      <rect id="Rectangle_748" data-name="Rectangle 748" width="101.317" height="108.012" fill="none"/>
    </clipPath>
  </defs>
  <g id="Group_173" data-name="Group 173" clip-path="url(#clip-path)">
    <path id="Path_257" data-name="Path 257" d="M41.4,6.368C37.492,2.125,31.686,0,24.027,0H1.26A1.26,1.26,0,0,0,0,1.264V47.692a1.26,1.26,0,0,0,1.26,1.26H24.027c7.659,0,13.465-2.121,17.373-6.409q5.862-6.4,5.85-18.065,0-11.724-5.85-18.11M28,33.722c-1.072,1.943-3.215,2.925-6.409,2.925h-3.05a1.26,1.26,0,0,1-1.26-1.26V13.568a1.26,1.26,0,0,1,1.26-1.26h3.05c3.193,0,5.337.982,6.409,2.925,1.072,1.965,1.586,5.047,1.586,9.245s-.514,7.28-1.586,9.245" transform="translate(0 -0.003)" fill="#f3feff"/>
    <path id="Path_258" data-name="Path 258" d="M22.532,192.236V238.63a1.288,1.288,0,0,0,1.288,1.288H38.527a1.288,1.288,0,0,0,1.288-1.288V192.236a1.288,1.288,0,0,0-1.288-1.288H23.82a1.288,1.288,0,0,0-1.288,1.288" transform="translate(-15.565 -131.906)" fill="#f3feff"/>
    <path id="Path_259" data-name="Path 259" d="M200.756,192.194v10.192a1.246,1.246,0,0,1-1.246,1.246h-12.8a1.246,1.246,0,0,0-1.246,1.246v33.795a1.246,1.246,0,0,1-1.246,1.246H169.422a1.246,1.246,0,0,1-1.246-1.246V204.877a1.246,1.246,0,0,0-1.246-1.246H154.059a1.246,1.246,0,0,1-1.246-1.246V192.194a1.246,1.246,0,0,1,1.246-1.246H199.51a1.246,1.246,0,0,1,1.246,1.246" transform="translate(-105.563 -131.906)" fill="#f3feff"/>
    <path id="Path_260" data-name="Path 260" d="M219.861,24.474a27.823,27.823,0,0,1-2.881,13.242,19.377,19.377,0,0,1-8.262,8.351,30.456,30.456,0,0,1-25.858,0,19.7,19.7,0,0,1-8.352-8.351,27.821,27.821,0,0,1-2.9-13.242,27.819,27.819,0,0,1,2.9-13.242,19.7,19.7,0,0,1,8.352-8.352,30.456,30.456,0,0,1,25.858,0,19.77,19.77,0,0,1,5.511,4.326,1.27,1.27,0,0,1-.081,1.723L199.565,23.513a1.266,1.266,0,0,1-1.789,0l-9.086-9.086a1.9,1.9,0,0,0-2.682,0l-3.347,3.347a1.9,1.9,0,0,0,0,2.682l15.563,15.563c.245.246.759.134,1.139-.246l17.884-17.884a1.274,1.274,0,0,1,2.156.7,35.522,35.522,0,0,1,.459,5.886" transform="translate(-118.545)" fill="#f3feff"/>
  </g>
</svg>
