<svg id="Group_126" data-name="Group 126" xmlns="http://www.w3.org/2000/svg" width="48.996" height="48.873" viewBox="0 0 48.996 48.873">
  <g id="Group_63" data-name="Group 63">
    <path id="Path_97" data-name="Path 97" d="M42.081,7.478A24.433,24.433,0,0,0,29.015,2.05V7.011a19.5,19.5,0,0,1,9.578,3.979Zm3.954,16.553H51a24.434,24.434,0,0,0-5.428-13.066l-3.512,3.487A19.5,19.5,0,0,1,46.035,24.031ZM42.056,38.52l3.512,3.512A24.513,24.513,0,0,0,51,28.967H46.035A19.513,19.513,0,0,1,42.056,38.52ZM29.015,45.962v4.961A24.433,24.433,0,0,0,42.081,45.5l-3.512-3.512A19.323,19.323,0,0,1,29.015,45.962Zm6.361-22.938L29.015,29.36V14.207H24.1V29.36L17.742,23,14.28,26.486l12.28,12.28,12.28-12.28ZM24.1,45.962v4.961a24.56,24.56,0,0,1,0-48.873V7.011a19.627,19.627,0,0,0,0,38.951Z" transform="translate(-2 -2.05)" fill="#f3feff"/>
  </g>
</svg>
