<svg xmlns="http://www.w3.org/2000/svg" width="17.614" height="12.81" viewBox="0 0 17.614 12.81">
  <path id="Path_152" data-name="Path 152" d="M12.209,10.405a3.2,3.2,0,1,0-3.2-3.2A3.2,3.2,0,0,0,12.209,10.405Zm0-4.8a1.6,1.6,0,1,1-1.6,1.6A1.606,1.606,0,0,1,12.209,5.6Zm0,6.405c-2.138,0-6.405,1.073-6.405,3.2v1.6h12.81v-1.6C18.614,13.079,14.346,12.006,12.209,12.006Zm-4.8,3.2c.176-.576,2.65-1.6,4.8-1.6s4.644,1.033,4.8,1.6ZM5,12.807v-2.4h2.4V8.8H5V6.4H3.4V8.8H1v1.6H3.4v2.4Z" transform="translate(-1 -4)" fill="#f3feff"/>
</svg>
