<svg xmlns="http://www.w3.org/2000/svg" width="15.32" height="11.142" viewBox="0 0 15.32 11.142">
  <path id="Path_175" data-name="Path 175" d="M10.749,9.571A2.785,2.785,0,1,0,7.964,6.785,2.785,2.785,0,0,0,10.749,9.571Zm0-4.178A1.393,1.393,0,1,1,9.356,6.785,1.4,1.4,0,0,1,10.749,5.393Zm0,5.571c-1.859,0-5.571.933-5.571,2.785v1.393H16.32V13.749C16.32,11.9,12.608,10.964,10.749,10.964ZM6.571,13.749c.153-.5,2.3-1.393,4.178-1.393s4.039.9,4.178,1.393ZM4.482,11.66V9.571H6.571V8.178H4.482V6.089H3.089V8.178H1V9.571H3.089V11.66Z" transform="translate(-1 -4)" fill="#f3feff"/>
</svg>
