<svg xmlns="http://www.w3.org/2000/svg" width="28.912" height="23.861" viewBox="0 0 28.912 23.861">
  <path id="edit_note_FILL0_wght400_GRAD0_opsz48" d="M134.595-696.139v-2.823l-8.59-8.59-2.824,2.823,8.59,8.59Zm14.317-8.351v-2.386h-11.93v2.386Zm-27.44-1.949,2.824-2.824-1.153-1.153a1.13,1.13,0,0,0-.835-.318,1.13,1.13,0,0,0-.835.318l-1.153,1.153a1.129,1.129,0,0,0-.318.835,1.129,1.129,0,0,0,.318.835Zm27.44-4.613v-2.386H130.22v2.386Zm0-6.562V-720H130.22v2.386Z" transform="translate(-120 720)" fill="#F3FEFF"/>
</svg>
