<svg xmlns="http://www.w3.org/2000/svg" width="28.71" height="28.71" viewBox="0 0 28.71 28.71">
  <path id="Path_104" data-name="Path 104" d="M23.875,26.976H4.734V7.836h12.3V5.1H4.734A2.742,2.742,0,0,0,2,7.836v19.14A2.742,2.742,0,0,0,4.734,29.71h19.14a2.742,2.742,0,0,0,2.734-2.734v-12.3H23.875Zm-10.65-4.334-2.68-3.226-3.76,4.826H21.824L16.984,17.8ZM26.609,5.1V1H23.875V5.1h-4.1c.014.014,0,2.734,0,2.734h4.1v4.088c.014.014,2.734,0,2.734,0V7.836h4.1V5.1Z" transform="translate(-2 -1)" fill="#f3feff"/>
</svg>
