<svg id="Group_174" data-name="Group 174" xmlns="http://www.w3.org/2000/svg" xmlns:xlink="http://www.w3.org/1999/xlink" width="77.178" height="82.278" viewBox="0 0 77.178 82.278">
  <defs>
    <clipPath id="clip-path">
      <rect id="Rectangle_748" data-name="Rectangle 748" width="77.178" height="82.278" fill="#155883"/>
    </clipPath>
  </defs>
  <g id="Group_173" data-name="Group 173" clip-path="url(#clip-path)">
    <path id="Path_257" data-name="Path 257" d="M31.537,4.852C28.56,1.62,24.137,0,18.3,0H.96A.96.96,0,0,0,0,.964V36.33a.96.96,0,0,0,.96.96H18.3c5.834,0,10.257-1.616,13.234-4.882Q36,27.535,35.993,18.647q0-8.931-4.457-13.8M21.33,25.689c-.816,1.48-2.449,2.228-4.882,2.228H14.125a.96.96,0,0,1-.96-.96V10.336a.96.96,0,0,1,.96-.96h2.323c2.433,0,4.066.748,4.882,2.228.816,1.5,1.208,3.844,1.208,7.042s-.391,5.545-1.208,7.042" transform="translate(0 -0.003)" fill="#155883"/>
    <path id="Path_258" data-name="Path 258" d="M22.532,191.929v35.34a.981.981,0,0,0,.981.981h11.2a.981.981,0,0,0,.981-.981v-35.34a.981.981,0,0,0-.981-.981h-11.2a.981.981,0,0,0-.981.981" transform="translate(-17.225 -145.973)" fill="#155883"/>
    <path id="Path_259" data-name="Path 259" d="M189.334,191.9v7.764a.949.949,0,0,1-.949.949h-9.754a.949.949,0,0,0-.949.949V227.3a.949.949,0,0,1-.949.949H165.465a.949.949,0,0,1-.949-.949V201.559a.949.949,0,0,0-.949-.949h-9.8a.949.949,0,0,1-.949-.949V191.9a.949.949,0,0,1,.949-.949h34.623a.949.949,0,0,1,.949.949" transform="translate(-116.82 -145.973)" fill="#155883"/>
    <path id="Path_260" data-name="Path 260" d="M208.365,18.643A21.194,21.194,0,0,1,206.17,28.73a14.76,14.76,0,0,1-6.294,6.362,23.2,23.2,0,0,1-19.7,0,15.007,15.007,0,0,1-6.362-6.362,21.193,21.193,0,0,1-2.211-10.087,21.192,21.192,0,0,1,2.211-10.087,15.006,15.006,0,0,1,6.362-6.362,23.2,23.2,0,0,1,19.7,0,15.06,15.06,0,0,1,4.2,3.3.967.967,0,0,1-.062,1.312L192.9,17.911a.964.964,0,0,1-1.363,0l-6.921-6.921a1.449,1.449,0,0,0-2.043,0l-2.549,2.55a1.449,1.449,0,0,0,0,2.043l11.855,11.855c.187.187.578.1.867-.187l13.623-13.623a.97.97,0,0,1,1.643.533,27.059,27.059,0,0,1,.349,4.484" transform="translate(-131.186)" fill="#155883"/>
  </g>
</svg>
