<svg xmlns="http://www.w3.org/2000/svg" width="79.03" height="79.031" viewBox="0 0 79.03 79.031">
  <g id="Group_186" data-name="Group 186" transform="translate(-911 -567)">
    <path id="Path_275" data-name="Path 275" d="M23.523,25.7a3.859,3.859,0,1,1-3.858-3.858A3.858,3.858,0,0,1,23.523,25.7" transform="translate(913.414 570.337)" fill="#155883"/>
    <path id="Path_276" data-name="Path 276" d="M53.775,25.7a3.859,3.859,0,1,1-3.858-3.858A3.858,3.858,0,0,1,53.775,25.7" transform="translate(918.036 570.337)" fill="#155883"/>
    <path id="Path_277" data-name="Path 277" d="M39.515,79.03A39.515,39.515,0,1,1,79.03,39.515,39.56,39.56,0,0,1,39.515,79.03m0-75.572A36.057,36.057,0,1,0,75.572,39.515,36.1,36.1,0,0,0,39.515,3.458" transform="translate(911 567.001)" fill="#155883"/>
    <path id="Path_278" data-name="Path 278" d="M32.885,58.924A21.319,21.319,0,0,1,11.59,37.629a1.408,1.408,0,0,1,2.816,0,18.479,18.479,0,1,0,36.959,0,1.408,1.408,0,0,1,2.816,0A21.319,21.319,0,0,1,32.885,58.924" transform="translate(917.63 576.567)" fill="#155883"/>
    <rect id="Rectangle_761" data-name="Rectangle 761" width="79" height="79" transform="translate(911 567)" fill="none"/>
  </g>
</svg>
