<svg xmlns="http://www.w3.org/2000/svg" width="83.7" height="83.7" viewBox="0 0 83.7 83.7">
  <path id="Path_235" data-name="Path 235" d="M77.4,58.8V77.4H12.3V58.8H77.4m4.65-9.3H7.65A4.664,4.664,0,0,0,3,54.15v27.9A4.664,4.664,0,0,0,7.65,86.7h74.4a4.664,4.664,0,0,0,4.65-4.65V54.15A4.664,4.664,0,0,0,82.05,49.5ZM21.6,75.075A6.975,6.975,0,1,1,28.575,68.1,7,7,0,0,1,21.6,75.075ZM77.4,12.3V30.9H12.3V12.3H77.4M82.05,3H7.65A4.664,4.664,0,0,0,3,7.65v27.9A4.664,4.664,0,0,0,7.65,40.2h74.4a4.664,4.664,0,0,0,4.65-4.65V7.65A4.664,4.664,0,0,0,82.05,3ZM21.6,28.575A6.975,6.975,0,1,1,28.575,21.6,7,7,0,0,1,21.6,28.575Z" transform="translate(-3 -3)" fill="#f7f7f7" opacity="0.85"/>
</svg>
