<svg xmlns="http://www.w3.org/2000/svg" width="23.344" height="25.938" viewBox="0 0 23.344 25.938">
  <path id="Path_33" data-name="Path 33" d="M23.75,3.594h-1.3V1H19.86V3.594H9.484V1H6.891V3.594h-1.3A2.6,2.6,0,0,0,3,6.188V24.344a2.6,2.6,0,0,0,2.594,2.594H23.75a2.6,2.6,0,0,0,2.594-2.594V6.188A2.6,2.6,0,0,0,23.75,3.594Zm0,20.75H5.594V11.375H23.75ZM5.594,8.781V6.188H23.75V8.781ZM12.8,22.347,20.5,14.656,19.12,13.282,12.8,19.6l-2.736-2.736L8.693,18.236Z" transform="translate(-3 -1)" fill="#155883"/>
</svg>
