<svg xmlns="http://www.w3.org/2000/svg" width="29.181" height="30" viewBox="0 0 29.181 30">
  <path id="Path_5" data-name="Path 5" d="M28.01,18.47a11.689,11.689,0,0,0,.1-1.47,11.69,11.69,0,0,0-.1-1.47l3.165-2.475a.757.757,0,0,0,.18-.96l-3-5.19a.749.749,0,0,0-.66-.375.7.7,0,0,0-.255.045L23.7,8.075a10.959,10.959,0,0,0-2.535-1.47L20.6,2.63A.731.731,0,0,0,19.865,2h-6a.731.731,0,0,0-.735.63l-.57,3.975a11.524,11.524,0,0,0-2.535,1.47L6.29,6.575a.849.849,0,0,0-.27-.045.743.743,0,0,0-.645.375l-3,5.19a.74.74,0,0,0,.18.96L5.72,15.53A11.9,11.9,0,0,0,5.615,17a11.9,11.9,0,0,0,.105,1.47L2.555,20.945a.757.757,0,0,0-.18.96l3,5.19a.749.749,0,0,0,.66.375.7.7,0,0,0,.255-.045l3.735-1.5a10.959,10.959,0,0,0,2.535,1.47l.57,3.975a.731.731,0,0,0,.735.63h6a.731.731,0,0,0,.735-.63l.57-3.975a11.524,11.524,0,0,0,2.535-1.47l3.735,1.5a.849.849,0,0,0,.27.045.743.743,0,0,0,.645-.375l3-5.19a.757.757,0,0,0-.18-.96ZM25.04,15.9a8.014,8.014,0,0,1,.075,1.1c0,.315-.03.645-.075,1.095l-.21,1.695,1.335,1.05,1.62,1.26-1.05,1.815L24.83,23.15l-1.56-.63-1.35,1.02a8.785,8.785,0,0,1-1.875,1.095l-1.59.645-.24,1.695L17.915,29h-2.1l-.285-2.025-.24-1.695-1.59-.645a8.511,8.511,0,0,1-1.845-1.065L10.49,22.52l-1.59.645-1.9.765-1.05-1.815,1.62-1.26L8.9,19.805,8.69,18.11c-.045-.465-.075-.81-.075-1.11s.03-.645.075-1.1L8.9,14.21,7.565,13.16,5.945,11.9l1.05-1.815,1.9.765,1.56.63,1.35-1.02a8.785,8.785,0,0,1,1.875-1.1l1.59-.645.24-1.7L15.815,5H17.9l.285,2.025.24,1.7,1.59.645A8.511,8.511,0,0,1,21.86,10.43l1.365,1.05,1.59-.645,1.9-.765,1.05,1.815L26.165,13.16,24.83,14.21l.21,1.7ZM16.865,11a6,6,0,1,0,6,6A6,6,0,0,0,16.865,11Zm0,9a3,3,0,1,1,3-3A3.009,3.009,0,0,1,16.865,20Z" transform="translate(-2.271 -2)" fill="#f3feff"/>
</svg>
