<svg xmlns="http://www.w3.org/2000/svg" width="30" height="30" viewBox="0 0 30 30">
  <path id="Path_7" data-name="Path 7" d="M17,2A15,15,0,1,0,32,17,15.005,15.005,0,0,0,17,2ZM9.6,26.42c.645-1.35,4.575-2.67,7.4-2.67s6.765,1.32,7.395,2.67a11.888,11.888,0,0,1-14.79,0ZM26.54,24.245c-2.145-2.61-7.35-3.495-9.54-3.495s-7.4.885-9.54,3.495a12,12,0,1,1,19.08,0ZM17,8a5.25,5.25,0,1,0,5.25,5.25A5.237,5.237,0,0,0,17,8Zm0,7.5a2.25,2.25,0,1,1,2.25-2.25A2.247,2.247,0,0,1,17,15.5Z" transform="translate(-2 -2)" fill="#f3feff"/>
</svg>
